<mxfile host="Electron" modified="2023-11-03T12:26:27.130Z" agent="Mozilla/5.0 (Windows NT 10.0; Win64; x64) AppleWebKit/537.36 (KHTML, like Gecko) draw.io/21.6.8 Chrome/114.0.5735.289 Electron/25.5.0 Safari/537.36" etag="Yxxsl-mIyOjX76ge4XMg" version="21.6.8" type="device">
  <diagram id="SBEfdyE0XhPzJmjpcf7U" name="Page-1">
    <mxGraphModel dx="3329" dy="3102" grid="1" gridSize="10" guides="1" tooltips="1" connect="1" arrows="1" fold="1" page="1" pageScale="1" pageWidth="1169" pageHeight="1654" math="1" shadow="0">
      <root>
        <mxCell id="0" />
        <mxCell id="1" parent="0" />
        <mxCell id="0-RnSp5-5QjJDLLLA93T-279" style="edgeStyle=orthogonalEdgeStyle;rounded=0;orthogonalLoop=1;jettySize=auto;html=1;entryX=0.5;entryY=1;entryDx=0;entryDy=0;strokeColor=#CCCC00;strokeWidth=5;fontSize=32;fontColor=#CCCC00;endArrow=classic;endFill=1;" parent="1" target="0-RnSp5-5QjJDLLLA93T-237" edge="1">
          <mxGeometry relative="1" as="geometry">
            <mxPoint x="400" y="440" as="sourcePoint" />
          </mxGeometry>
        </mxCell>
        <mxCell id="0-RnSp5-5QjJDLLLA93T-274" style="edgeStyle=orthogonalEdgeStyle;rounded=0;orthogonalLoop=1;jettySize=auto;html=1;exitX=1;exitY=1;exitDx=0;exitDy=0;entryX=1;entryY=0;entryDx=0;entryDy=0;strokeColor=#b85450;strokeWidth=5;fontSize=32;fontColor=#CCCC00;endArrow=classic;endFill=1;fillColor=#f8cecc;" parent="1" source="0-RnSp5-5QjJDLLLA93T-273" target="0-RnSp5-5QjJDLLLA93T-196" edge="1">
          <mxGeometry relative="1" as="geometry">
            <Array as="points">
              <mxPoint x="700" y="200" />
              <mxPoint x="700" y="200" />
            </Array>
          </mxGeometry>
        </mxCell>
        <mxCell id="0-RnSp5-5QjJDLLLA93T-215" style="edgeStyle=orthogonalEdgeStyle;rounded=0;orthogonalLoop=1;jettySize=auto;html=1;entryX=0;entryY=0.5;entryDx=0;entryDy=0;strokeWidth=5;fontSize=32;fontColor=#B5739D;fillColor=#dae8fc;strokeColor=#6c8ebf;" parent="1" target="0-RnSp5-5QjJDLLLA93T-82" edge="1">
          <mxGeometry relative="1" as="geometry">
            <mxPoint x="-760" y="320" as="sourcePoint" />
            <Array as="points">
              <mxPoint x="-760" y="160" />
            </Array>
          </mxGeometry>
        </mxCell>
        <mxCell id="0-RnSp5-5QjJDLLLA93T-32" value="" style="rounded=0;whiteSpace=wrap;html=1;strokeColor=#000000;fillColor=#dae8fc;" parent="1" vertex="1">
          <mxGeometry x="-1000" y="360" width="480" height="360" as="geometry" />
        </mxCell>
        <mxCell id="0-RnSp5-5QjJDLLLA93T-216" style="edgeStyle=orthogonalEdgeStyle;rounded=0;orthogonalLoop=1;jettySize=auto;html=1;entryX=0.5;entryY=1;entryDx=0;entryDy=0;strokeWidth=5;fontSize=32;fontColor=#B5739D;fillColor=#dae8fc;strokeColor=#6c8ebf;" parent="1" source="0-RnSp5-5QjJDLLLA93T-82" target="0-RnSp5-5QjJDLLLA93T-214" edge="1">
          <mxGeometry relative="1" as="geometry" />
        </mxCell>
        <mxCell id="0-RnSp5-5QjJDLLLA93T-82" value="" style="rounded=0;whiteSpace=wrap;html=1;fontSize=48;" parent="1" vertex="1">
          <mxGeometry x="-520" y="120" width="80" height="80" as="geometry" />
        </mxCell>
        <mxCell id="0-RnSp5-5QjJDLLLA93T-13" style="edgeStyle=orthogonalEdgeStyle;rounded=0;orthogonalLoop=1;jettySize=auto;html=1;entryX=0.5;entryY=1;entryDx=0;entryDy=0;entryPerimeter=0;" parent="1" source="0-RnSp5-5QjJDLLLA93T-8" target="0-RnSp5-5QjJDLLLA93T-10" edge="1">
          <mxGeometry relative="1" as="geometry" />
        </mxCell>
        <mxCell id="0-RnSp5-5QjJDLLLA93T-8" value="" style="shape=mxgraph.cisco.computers_and_peripherals.pc;sketch=0;html=1;pointerEvents=1;dashed=0;fillColor=#808080;strokeColor=#ffffff;strokeWidth=2;verticalLabelPosition=bottom;verticalAlign=top;align=center;outlineConnect=0;" parent="1" vertex="1">
          <mxGeometry x="-800" y="600" width="80" height="80" as="geometry" />
        </mxCell>
        <mxCell id="0-RnSp5-5QjJDLLLA93T-15" style="edgeStyle=orthogonalEdgeStyle;rounded=0;orthogonalLoop=1;jettySize=auto;html=1;fillColor=#dae8fc;strokeColor=#6c8ebf;strokeWidth=5;entryX=0.5;entryY=1;entryDx=0;entryDy=0;" parent="1" target="0-RnSp5-5QjJDLLLA93T-219" edge="1">
          <mxGeometry relative="1" as="geometry">
            <mxPoint x="-80" y="162" as="sourcePoint" />
            <mxPoint x="320" y="160" as="targetPoint" />
          </mxGeometry>
        </mxCell>
        <mxCell id="0-RnSp5-5QjJDLLLA93T-9" value="" style="shape=mxgraph.cisco.routers.atm_router;sketch=0;html=1;pointerEvents=1;dashed=0;fillColor=#808080;strokeColor=#ffffff;strokeWidth=2;verticalLabelPosition=bottom;verticalAlign=top;align=center;outlineConnect=0;" parent="1" vertex="1">
          <mxGeometry x="-200" y="120" width="80" height="83" as="geometry" />
        </mxCell>
        <mxCell id="0-RnSp5-5QjJDLLLA93T-10" value="" style="shape=mxgraph.cisco.switches.atm_switch;sketch=0;html=1;pointerEvents=1;dashed=0;fillColor=#808080;strokeColor=#ffffff;strokeWidth=2;verticalLabelPosition=bottom;verticalAlign=top;align=center;outlineConnect=0;" parent="1" vertex="1">
          <mxGeometry x="-800" y="400" width="80" height="80" as="geometry" />
        </mxCell>
        <mxCell id="0-RnSp5-5QjJDLLLA93T-14" value="" style="shape=mxgraph.cisco.routers.atm_router;sketch=0;html=1;pointerEvents=1;dashed=0;fillColor=#808080;strokeColor=#ffffff;strokeWidth=2;verticalLabelPosition=bottom;verticalAlign=top;align=center;outlineConnect=0;" parent="1" vertex="1">
          <mxGeometry x="360" y="120" width="80" height="83" as="geometry" />
        </mxCell>
        <mxCell id="0-RnSp5-5QjJDLLLA93T-20" value="" style="shape=mxgraph.cisco.routers.atm_router;sketch=0;html=1;pointerEvents=1;dashed=0;fillColor=#808080;strokeColor=#ffffff;strokeWidth=2;verticalLabelPosition=bottom;verticalAlign=top;align=center;outlineConnect=0;" parent="1" vertex="1">
          <mxGeometry x="920" y="120" width="80" height="83" as="geometry" />
        </mxCell>
        <mxCell id="0-RnSp5-5QjJDLLLA93T-29" style="edgeStyle=orthogonalEdgeStyle;rounded=0;orthogonalLoop=1;jettySize=auto;html=1;entryX=1;entryY=0.5;entryDx=0;entryDy=0;entryPerimeter=0;" parent="1" source="0-RnSp5-5QjJDLLLA93T-28" target="0-RnSp5-5QjJDLLLA93T-10" edge="1">
          <mxGeometry relative="1" as="geometry">
            <Array as="points">
              <mxPoint x="-660" y="640" />
              <mxPoint x="-660" y="440" />
            </Array>
          </mxGeometry>
        </mxCell>
        <mxCell id="0-RnSp5-5QjJDLLLA93T-28" value="" style="shape=mxgraph.cisco.computers_and_peripherals.pc;sketch=0;html=1;pointerEvents=1;dashed=0;fillColor=#808080;strokeColor=#ffffff;strokeWidth=2;verticalLabelPosition=bottom;verticalAlign=top;align=center;outlineConnect=0;" parent="1" vertex="1">
          <mxGeometry x="-640" y="600" width="80" height="80" as="geometry" />
        </mxCell>
        <mxCell id="0-RnSp5-5QjJDLLLA93T-30" style="edgeStyle=orthogonalEdgeStyle;rounded=0;orthogonalLoop=1;jettySize=auto;html=1;entryX=0;entryY=0.5;entryDx=0;entryDy=0;entryPerimeter=0;" parent="1" source="0-RnSp5-5QjJDLLLA93T-31" target="0-RnSp5-5QjJDLLLA93T-10" edge="1">
          <mxGeometry relative="1" as="geometry">
            <mxPoint x="-1039.9999999999998" y="440" as="targetPoint" />
            <Array as="points">
              <mxPoint x="-860" y="640" />
              <mxPoint x="-860" y="440" />
            </Array>
          </mxGeometry>
        </mxCell>
        <mxCell id="0-RnSp5-5QjJDLLLA93T-31" value="" style="shape=mxgraph.cisco.computers_and_peripherals.pc;sketch=0;html=1;pointerEvents=1;dashed=0;fillColor=#808080;strokeColor=#ffffff;strokeWidth=2;verticalLabelPosition=bottom;verticalAlign=top;align=center;outlineConnect=0;" parent="1" vertex="1">
          <mxGeometry x="-960" y="600" width="80" height="80" as="geometry" />
        </mxCell>
        <mxCell id="0-RnSp5-5QjJDLLLA93T-33" value="&lt;font color=&quot;#ffffff&quot; style=&quot;font-size: 32px;&quot;&gt;&lt;b&gt;A&lt;/b&gt;&lt;/font&gt;" style="rounded=0;whiteSpace=wrap;html=1;strokeColor=#000000;fillColor=#6666FF;" parent="1" vertex="1">
          <mxGeometry x="-1000" y="360" width="80" height="80" as="geometry" />
        </mxCell>
        <mxCell id="0-RnSp5-5QjJDLLLA93T-35" value="R" style="text;html=1;strokeColor=none;fillColor=none;align=center;verticalAlign=middle;whiteSpace=wrap;rounded=0;fontSize=32;fontColor=#FFFFFF;" parent="1" vertex="1">
          <mxGeometry x="-110" y="-540" width="60" height="30" as="geometry" />
        </mxCell>
        <mxCell id="0-RnSp5-5QjJDLLLA93T-185" style="edgeStyle=orthogonalEdgeStyle;rounded=0;orthogonalLoop=1;jettySize=auto;html=1;strokeWidth=5;fontSize=32;fontColor=#000000;fillColor=#d5e8d4;strokeColor=#82b366;exitX=0.5;exitY=0;exitDx=0;exitDy=0;" parent="1" source="0-RnSp5-5QjJDLLLA93T-283" edge="1">
          <mxGeometry relative="1" as="geometry">
            <mxPoint x="130" y="-320" as="sourcePoint" />
            <mxPoint x="320" y="-320" as="targetPoint" />
            <Array as="points">
              <mxPoint x="220" y="-320" />
              <mxPoint x="320" y="-321" />
            </Array>
          </mxGeometry>
        </mxCell>
        <mxCell id="0-RnSp5-5QjJDLLLA93T-41" value="" style="rounded=0;whiteSpace=wrap;html=1;strokeColor=#000000;fillColor=#d5e8d4;" parent="1" vertex="1">
          <mxGeometry x="-400" y="-500" width="480" height="340" as="geometry" />
        </mxCell>
        <mxCell id="0-RnSp5-5QjJDLLLA93T-42" style="edgeStyle=orthogonalEdgeStyle;rounded=0;orthogonalLoop=1;jettySize=auto;html=1;entryX=0.5;entryY=1;entryDx=0;entryDy=0;entryPerimeter=0;" parent="1" source="0-RnSp5-5QjJDLLLA93T-43" target="0-RnSp5-5QjJDLLLA93T-44" edge="1">
          <mxGeometry relative="1" as="geometry" />
        </mxCell>
        <mxCell id="0-RnSp5-5QjJDLLLA93T-43" value="" style="shape=mxgraph.cisco.computers_and_peripherals.pc;sketch=0;html=1;pointerEvents=1;dashed=0;fillColor=#808080;strokeColor=#ffffff;strokeWidth=2;verticalLabelPosition=bottom;verticalAlign=top;align=center;outlineConnect=0;" parent="1" vertex="1">
          <mxGeometry x="-200" y="-280" width="80" height="80" as="geometry" />
        </mxCell>
        <mxCell id="0-RnSp5-5QjJDLLLA93T-44" value="" style="shape=mxgraph.cisco.switches.atm_switch;sketch=0;html=1;pointerEvents=1;dashed=0;fillColor=#808080;strokeColor=#ffffff;strokeWidth=2;verticalLabelPosition=bottom;verticalAlign=top;align=center;outlineConnect=0;" parent="1" vertex="1">
          <mxGeometry x="-200" y="-480" width="80" height="80" as="geometry" />
        </mxCell>
        <mxCell id="0-RnSp5-5QjJDLLLA93T-45" style="edgeStyle=orthogonalEdgeStyle;rounded=0;orthogonalLoop=1;jettySize=auto;html=1;entryX=1;entryY=0.5;entryDx=0;entryDy=0;entryPerimeter=0;" parent="1" source="0-RnSp5-5QjJDLLLA93T-46" target="0-RnSp5-5QjJDLLLA93T-44" edge="1">
          <mxGeometry relative="1" as="geometry">
            <Array as="points">
              <mxPoint x="-60" y="-240" />
              <mxPoint x="-60" y="-440" />
            </Array>
          </mxGeometry>
        </mxCell>
        <mxCell id="0-RnSp5-5QjJDLLLA93T-46" value="" style="shape=mxgraph.cisco.computers_and_peripherals.pc;sketch=0;html=1;pointerEvents=1;dashed=0;fillColor=#808080;strokeColor=#ffffff;strokeWidth=2;verticalLabelPosition=bottom;verticalAlign=top;align=center;outlineConnect=0;" parent="1" vertex="1">
          <mxGeometry x="-40" y="-280" width="80" height="80" as="geometry" />
        </mxCell>
        <mxCell id="0-RnSp5-5QjJDLLLA93T-47" style="edgeStyle=orthogonalEdgeStyle;rounded=0;orthogonalLoop=1;jettySize=auto;html=1;entryX=0;entryY=0.5;entryDx=0;entryDy=0;entryPerimeter=0;" parent="1" source="0-RnSp5-5QjJDLLLA93T-48" target="0-RnSp5-5QjJDLLLA93T-44" edge="1">
          <mxGeometry relative="1" as="geometry">
            <mxPoint x="-439.9999999999998" y="-440" as="targetPoint" />
            <Array as="points">
              <mxPoint x="-260" y="-240" />
              <mxPoint x="-260" y="-440" />
            </Array>
          </mxGeometry>
        </mxCell>
        <mxCell id="0-RnSp5-5QjJDLLLA93T-48" value="" style="shape=mxgraph.cisco.computers_and_peripherals.pc;sketch=0;html=1;pointerEvents=1;dashed=0;fillColor=#808080;strokeColor=#ffffff;strokeWidth=2;verticalLabelPosition=bottom;verticalAlign=top;align=center;outlineConnect=0;" parent="1" vertex="1">
          <mxGeometry x="-360" y="-280" width="80" height="80" as="geometry" />
        </mxCell>
        <mxCell id="0-RnSp5-5QjJDLLLA93T-49" value="&lt;font color=&quot;#ffffff&quot; style=&quot;font-size: 32px;&quot;&gt;&lt;b&gt;B&lt;/b&gt;&lt;/font&gt;" style="rounded=0;whiteSpace=wrap;html=1;strokeColor=#000000;fillColor=#009900;" parent="1" vertex="1">
          <mxGeometry x="-400" y="-500" width="80" height="80" as="geometry" />
        </mxCell>
        <mxCell id="0-RnSp5-5QjJDLLLA93T-64" value="" style="rounded=0;whiteSpace=wrap;html=1;strokeColor=default;fillColor=#f8cecc;" parent="1" vertex="1">
          <mxGeometry x="1320" y="360" width="480" height="360" as="geometry" />
        </mxCell>
        <mxCell id="0-RnSp5-5QjJDLLLA93T-65" style="edgeStyle=orthogonalEdgeStyle;rounded=0;orthogonalLoop=1;jettySize=auto;html=1;entryX=0.5;entryY=1;entryDx=0;entryDy=0;entryPerimeter=0;" parent="1" source="0-RnSp5-5QjJDLLLA93T-66" target="0-RnSp5-5QjJDLLLA93T-67" edge="1">
          <mxGeometry relative="1" as="geometry" />
        </mxCell>
        <mxCell id="0-RnSp5-5QjJDLLLA93T-66" value="" style="shape=mxgraph.cisco.computers_and_peripherals.pc;sketch=0;html=1;pointerEvents=1;dashed=0;fillColor=#808080;strokeColor=#ffffff;strokeWidth=2;verticalLabelPosition=bottom;verticalAlign=top;align=center;outlineConnect=0;" parent="1" vertex="1">
          <mxGeometry x="1520" y="600" width="80" height="80" as="geometry" />
        </mxCell>
        <mxCell id="0-RnSp5-5QjJDLLLA93T-97" style="edgeStyle=orthogonalEdgeStyle;rounded=0;orthogonalLoop=1;jettySize=auto;html=1;strokeWidth=5;fontSize=48;fontColor=#009900;fillColor=#f8cecc;strokeColor=#b85450;" parent="1" edge="1">
          <mxGeometry relative="1" as="geometry">
            <mxPoint x="1040" y="200" as="targetPoint" />
            <mxPoint x="1520" y="320" as="sourcePoint" />
            <Array as="points">
              <mxPoint x="1520" y="200" />
            </Array>
          </mxGeometry>
        </mxCell>
        <mxCell id="0-RnSp5-5QjJDLLLA93T-67" value="" style="shape=mxgraph.cisco.switches.atm_switch;sketch=0;html=1;pointerEvents=1;dashed=0;fillColor=#808080;strokeColor=#ffffff;strokeWidth=2;verticalLabelPosition=bottom;verticalAlign=top;align=center;outlineConnect=0;" parent="1" vertex="1">
          <mxGeometry x="1520" y="400" width="80" height="80" as="geometry" />
        </mxCell>
        <mxCell id="0-RnSp5-5QjJDLLLA93T-68" style="edgeStyle=orthogonalEdgeStyle;rounded=0;orthogonalLoop=1;jettySize=auto;html=1;entryX=1;entryY=0.5;entryDx=0;entryDy=0;entryPerimeter=0;" parent="1" source="0-RnSp5-5QjJDLLLA93T-69" target="0-RnSp5-5QjJDLLLA93T-67" edge="1">
          <mxGeometry relative="1" as="geometry">
            <Array as="points">
              <mxPoint x="1660" y="640" />
              <mxPoint x="1660" y="440" />
            </Array>
          </mxGeometry>
        </mxCell>
        <mxCell id="0-RnSp5-5QjJDLLLA93T-69" value="" style="shape=mxgraph.cisco.computers_and_peripherals.pc;sketch=0;html=1;pointerEvents=1;dashed=0;fillColor=#808080;strokeColor=#ffffff;strokeWidth=2;verticalLabelPosition=bottom;verticalAlign=top;align=center;outlineConnect=0;" parent="1" vertex="1">
          <mxGeometry x="1680" y="600" width="80" height="80" as="geometry" />
        </mxCell>
        <mxCell id="0-RnSp5-5QjJDLLLA93T-70" style="edgeStyle=orthogonalEdgeStyle;rounded=0;orthogonalLoop=1;jettySize=auto;html=1;entryX=0;entryY=0.5;entryDx=0;entryDy=0;entryPerimeter=0;" parent="1" source="0-RnSp5-5QjJDLLLA93T-71" target="0-RnSp5-5QjJDLLLA93T-67" edge="1">
          <mxGeometry relative="1" as="geometry">
            <mxPoint x="1280.0000000000002" y="440" as="targetPoint" />
            <Array as="points">
              <mxPoint x="1460" y="640" />
              <mxPoint x="1460" y="440" />
            </Array>
          </mxGeometry>
        </mxCell>
        <mxCell id="0-RnSp5-5QjJDLLLA93T-71" value="" style="shape=mxgraph.cisco.computers_and_peripherals.pc;sketch=0;html=1;pointerEvents=1;dashed=0;fillColor=#808080;strokeColor=#ffffff;strokeWidth=2;verticalLabelPosition=bottom;verticalAlign=top;align=center;outlineConnect=0;" parent="1" vertex="1">
          <mxGeometry x="1360" y="600" width="80" height="80" as="geometry" />
        </mxCell>
        <mxCell id="0-RnSp5-5QjJDLLLA93T-72" value="&lt;font color=&quot;#ffffff&quot; style=&quot;font-size: 32px;&quot;&gt;&lt;b&gt;E&lt;/b&gt;&lt;/font&gt;" style="rounded=0;whiteSpace=wrap;html=1;strokeColor=#000000;fillColor=#FF3333;" parent="1" vertex="1">
          <mxGeometry x="1320" y="360" width="80" height="80" as="geometry" />
        </mxCell>
        <mxCell id="0-RnSp5-5QjJDLLLA93T-74" style="edgeStyle=orthogonalEdgeStyle;rounded=0;orthogonalLoop=1;jettySize=auto;html=1;fontSize=24;fontColor=#000000;strokeWidth=5;fillColor=#dae8fc;strokeColor=#6c8ebf;" parent="1" edge="1">
          <mxGeometry relative="1" as="geometry">
            <mxPoint x="1040" y="162" as="sourcePoint" />
            <mxPoint x="1560" y="320" as="targetPoint" />
          </mxGeometry>
        </mxCell>
        <mxCell id="0-RnSp5-5QjJDLLLA93T-81" value="&lt;font color=&quot;#0066cc&quot; style=&quot;font-size: 48px;&quot;&gt;&lt;b&gt;4&lt;/b&gt;&lt;/font&gt;" style="text;html=1;align=center;verticalAlign=middle;resizable=0;points=[];autosize=1;strokeColor=none;fillColor=none;fontSize=24;fontColor=#000000;" parent="1" vertex="1">
          <mxGeometry x="-505" y="125" width="50" height="70" as="geometry" />
        </mxCell>
        <mxCell id="0-RnSp5-5QjJDLLLA93T-85" value="" style="rounded=0;whiteSpace=wrap;html=1;fontSize=48;" parent="1" vertex="1">
          <mxGeometry x="80" y="120" width="80" height="80" as="geometry" />
        </mxCell>
        <mxCell id="0-RnSp5-5QjJDLLLA93T-86" value="&lt;font color=&quot;#0066cc&quot; style=&quot;font-size: 48px;&quot;&gt;&lt;b&gt;3&lt;/b&gt;&lt;/font&gt;" style="text;html=1;align=center;verticalAlign=middle;resizable=0;points=[];autosize=1;strokeColor=none;fillColor=none;fontSize=24;fontColor=#000000;" parent="1" vertex="1">
          <mxGeometry x="95" y="125" width="50" height="70" as="geometry" />
        </mxCell>
        <mxCell id="0-RnSp5-5QjJDLLLA93T-106" value="" style="group" parent="1" vertex="1" connectable="0">
          <mxGeometry x="1400" y="160" width="80" height="80" as="geometry" />
        </mxCell>
        <mxCell id="0-RnSp5-5QjJDLLLA93T-107" value="" style="rounded=0;whiteSpace=wrap;html=1;fontSize=48;" parent="0-RnSp5-5QjJDLLLA93T-106" vertex="1">
          <mxGeometry width="80" height="80" as="geometry" />
        </mxCell>
        <mxCell id="0-RnSp5-5QjJDLLLA93T-108" value="&lt;font color=&quot;#ff3333&quot; style=&quot;font-size: 48px;&quot;&gt;&lt;b style=&quot;&quot;&gt;4&lt;/b&gt;&lt;/font&gt;" style="text;html=1;align=center;verticalAlign=middle;resizable=0;points=[];autosize=1;strokeColor=none;fillColor=none;fontSize=24;fontColor=#000000;" parent="0-RnSp5-5QjJDLLLA93T-106" vertex="1">
          <mxGeometry x="15" y="5" width="50" height="70" as="geometry" />
        </mxCell>
        <mxCell id="0-RnSp5-5QjJDLLLA93T-109" value="" style="group" parent="1" vertex="1" connectable="0">
          <mxGeometry x="760" y="160" width="80" height="80" as="geometry" />
        </mxCell>
        <mxCell id="0-RnSp5-5QjJDLLLA93T-110" value="" style="rounded=0;whiteSpace=wrap;html=1;fontSize=48;" parent="0-RnSp5-5QjJDLLLA93T-109" vertex="1">
          <mxGeometry width="80" height="80" as="geometry" />
        </mxCell>
        <mxCell id="0-RnSp5-5QjJDLLLA93T-111" value="&lt;font color=&quot;#ff3333&quot; style=&quot;font-size: 48px;&quot;&gt;&lt;b style=&quot;&quot;&gt;3&lt;/b&gt;&lt;/font&gt;" style="text;html=1;align=center;verticalAlign=middle;resizable=0;points=[];autosize=1;strokeColor=none;fillColor=none;fontSize=24;fontColor=#000000;" parent="0-RnSp5-5QjJDLLLA93T-109" vertex="1">
          <mxGeometry x="15" y="5" width="50" height="70" as="geometry" />
        </mxCell>
        <mxCell id="0-RnSp5-5QjJDLLLA93T-285" style="edgeStyle=orthogonalEdgeStyle;rounded=0;orthogonalLoop=1;jettySize=auto;html=1;strokeColor=#9673a6;strokeWidth=5;fontSize=32;fontColor=#CCCC00;endArrow=classic;endFill=1;fillColor=#e1d5e7;" parent="1" target="0-RnSp5-5QjJDLLLA93T-199" edge="1">
          <mxGeometry relative="1" as="geometry">
            <mxPoint x="960" y="-680" as="sourcePoint" />
          </mxGeometry>
        </mxCell>
        <mxCell id="0-RnSp5-5QjJDLLLA93T-115" value="" style="rounded=0;whiteSpace=wrap;html=1;strokeColor=#000000;fillColor=#e1d5e7;" parent="1" vertex="1">
          <mxGeometry x="720" y="-1080" width="480" height="360" as="geometry" />
        </mxCell>
        <mxCell id="0-RnSp5-5QjJDLLLA93T-123" value="&lt;font color=&quot;#ffffff&quot; style=&quot;font-size: 32px;&quot;&gt;&lt;b&gt;G&lt;/b&gt;&lt;/font&gt;" style="rounded=0;whiteSpace=wrap;html=1;strokeColor=#000000;fillColor=#B5739D;" parent="1" vertex="1">
          <mxGeometry x="720" y="-1080" width="80" height="80" as="geometry" />
        </mxCell>
        <mxCell id="0-RnSp5-5QjJDLLLA93T-91" value="" style="rounded=0;whiteSpace=wrap;html=1;fontSize=48;" parent="1" vertex="1">
          <mxGeometry x="1240" y="120" width="80" height="80" as="geometry" />
        </mxCell>
        <mxCell id="0-RnSp5-5QjJDLLLA93T-92" value="&lt;font color=&quot;#0066cc&quot; style=&quot;font-size: 48px;&quot;&gt;&lt;b&gt;1&lt;/b&gt;&lt;/font&gt;" style="text;html=1;align=center;verticalAlign=middle;resizable=0;points=[];autosize=1;strokeColor=none;fillColor=none;fontSize=24;fontColor=#000000;" parent="1" vertex="1">
          <mxGeometry x="1255" y="125" width="50" height="70" as="geometry" />
        </mxCell>
        <mxCell id="0-RnSp5-5QjJDLLLA93T-153" value="500" style="rounded=0;whiteSpace=wrap;html=1;strokeColor=#666666;fontSize=32;fontColor=#333333;fillColor=#f5f5f5;rotation=90;" parent="1" vertex="1">
          <mxGeometry x="-140" y="140" width="80" height="40" as="geometry" />
        </mxCell>
        <mxCell id="0-RnSp5-5QjJDLLLA93T-175" style="edgeStyle=orthogonalEdgeStyle;rounded=0;orthogonalLoop=1;jettySize=auto;html=1;strokeWidth=5;fontSize=32;fontColor=#000000;fillColor=#f8cecc;strokeColor=#b85450;" parent="1" edge="1">
          <mxGeometry relative="1" as="geometry">
            <mxPoint x="400" y="80" as="sourcePoint" />
            <mxPoint x="400" y="-240" as="targetPoint" />
            <Array as="points">
              <mxPoint x="400" y="-160" />
            </Array>
          </mxGeometry>
        </mxCell>
        <mxCell id="0-RnSp5-5QjJDLLLA93T-156" value="&lt;span style=&quot;font-size: 48px;&quot;&gt;&lt;span style=&quot;font-size: 32px;&quot;&gt;1500&lt;/span&gt;&lt;/span&gt;" style="rounded=0;whiteSpace=wrap;html=1;fontSize=24;fillColor=#f5f5f5;fontColor=#333333;strokeColor=#666666;" parent="1" vertex="1">
          <mxGeometry x="360" y="80" width="80" height="40" as="geometry" />
        </mxCell>
        <mxCell id="0-RnSp5-5QjJDLLLA93T-176" style="edgeStyle=orthogonalEdgeStyle;rounded=0;orthogonalLoop=1;jettySize=auto;html=1;strokeWidth=5;fontSize=32;fontColor=#000000;fillColor=#f8cecc;strokeColor=#b85450;" parent="1" edge="1">
          <mxGeometry relative="1" as="geometry">
            <mxPoint x="370" y="-400" as="sourcePoint" />
            <mxPoint x="370" y="-680" as="targetPoint" />
          </mxGeometry>
        </mxCell>
        <mxCell id="0-RnSp5-5QjJDLLLA93T-163" value="" style="shape=mxgraph.cisco.routers.atm_router;sketch=0;html=1;pointerEvents=1;dashed=0;fillColor=#808080;strokeColor=#ffffff;strokeWidth=2;verticalLabelPosition=bottom;verticalAlign=top;align=center;outlineConnect=0;" parent="1" vertex="1">
          <mxGeometry x="360" y="-363" width="80" height="83" as="geometry" />
        </mxCell>
        <mxCell id="0-RnSp5-5QjJDLLLA93T-164" value="R" style="text;html=1;strokeColor=none;fillColor=none;align=center;verticalAlign=middle;whiteSpace=wrap;rounded=0;fontSize=32;fontColor=#FFFFFF;" parent="1" vertex="1">
          <mxGeometry x="410" y="-1120" width="60" height="30" as="geometry" />
        </mxCell>
        <mxCell id="0-RnSp5-5QjJDLLLA93T-165" value="" style="rounded=0;whiteSpace=wrap;html=1;strokeColor=#000000;fillColor=#fff2cc;" parent="1" vertex="1">
          <mxGeometry x="160" y="-1080" width="480" height="360" as="geometry" />
        </mxCell>
        <mxCell id="0-RnSp5-5QjJDLLLA93T-166" style="edgeStyle=orthogonalEdgeStyle;rounded=0;orthogonalLoop=1;jettySize=auto;html=1;entryX=0.5;entryY=1;entryDx=0;entryDy=0;entryPerimeter=0;" parent="1" source="0-RnSp5-5QjJDLLLA93T-167" target="0-RnSp5-5QjJDLLLA93T-168" edge="1">
          <mxGeometry relative="1" as="geometry" />
        </mxCell>
        <mxCell id="0-RnSp5-5QjJDLLLA93T-167" value="" style="shape=mxgraph.cisco.computers_and_peripherals.pc;sketch=0;html=1;pointerEvents=1;dashed=0;fillColor=#808080;strokeColor=#ffffff;strokeWidth=2;verticalLabelPosition=bottom;verticalAlign=top;align=center;outlineConnect=0;" parent="1" vertex="1">
          <mxGeometry x="360" y="-840" width="80" height="80" as="geometry" />
        </mxCell>
        <mxCell id="0-RnSp5-5QjJDLLLA93T-168" value="" style="shape=mxgraph.cisco.switches.atm_switch;sketch=0;html=1;pointerEvents=1;dashed=0;fillColor=#808080;strokeColor=#ffffff;strokeWidth=2;verticalLabelPosition=bottom;verticalAlign=top;align=center;outlineConnect=0;" parent="1" vertex="1">
          <mxGeometry x="360" y="-1040" width="80" height="80" as="geometry" />
        </mxCell>
        <mxCell id="0-RnSp5-5QjJDLLLA93T-169" style="edgeStyle=orthogonalEdgeStyle;rounded=0;orthogonalLoop=1;jettySize=auto;html=1;entryX=1;entryY=0.5;entryDx=0;entryDy=0;entryPerimeter=0;" parent="1" source="0-RnSp5-5QjJDLLLA93T-170" target="0-RnSp5-5QjJDLLLA93T-168" edge="1">
          <mxGeometry relative="1" as="geometry">
            <Array as="points">
              <mxPoint x="500" y="-800" />
              <mxPoint x="500" y="-1000" />
            </Array>
          </mxGeometry>
        </mxCell>
        <mxCell id="0-RnSp5-5QjJDLLLA93T-170" value="" style="shape=mxgraph.cisco.computers_and_peripherals.pc;sketch=0;html=1;pointerEvents=1;dashed=0;fillColor=#808080;strokeColor=#ffffff;strokeWidth=2;verticalLabelPosition=bottom;verticalAlign=top;align=center;outlineConnect=0;" parent="1" vertex="1">
          <mxGeometry x="520" y="-840" width="80" height="80" as="geometry" />
        </mxCell>
        <mxCell id="0-RnSp5-5QjJDLLLA93T-171" style="edgeStyle=orthogonalEdgeStyle;rounded=0;orthogonalLoop=1;jettySize=auto;html=1;entryX=0;entryY=0.5;entryDx=0;entryDy=0;entryPerimeter=0;" parent="1" source="0-RnSp5-5QjJDLLLA93T-172" target="0-RnSp5-5QjJDLLLA93T-168" edge="1">
          <mxGeometry relative="1" as="geometry">
            <mxPoint x="120.00000000000023" y="-1000" as="targetPoint" />
            <Array as="points">
              <mxPoint x="300" y="-800" />
              <mxPoint x="300" y="-1000" />
            </Array>
          </mxGeometry>
        </mxCell>
        <mxCell id="0-RnSp5-5QjJDLLLA93T-172" value="" style="shape=mxgraph.cisco.computers_and_peripherals.pc;sketch=0;html=1;pointerEvents=1;dashed=0;fillColor=#808080;strokeColor=#ffffff;strokeWidth=2;verticalLabelPosition=bottom;verticalAlign=top;align=center;outlineConnect=0;" parent="1" vertex="1">
          <mxGeometry x="200" y="-840" width="80" height="80" as="geometry" />
        </mxCell>
        <mxCell id="0-RnSp5-5QjJDLLLA93T-173" value="&lt;font color=&quot;#ffffff&quot;&gt;&lt;span style=&quot;font-size: 32px;&quot;&gt;&lt;b&gt;C&lt;/b&gt;&lt;/span&gt;&lt;/font&gt;" style="rounded=0;whiteSpace=wrap;html=1;strokeColor=#000000;fillColor=#FF8000;" parent="1" vertex="1">
          <mxGeometry x="160" y="-1080" width="80" height="80" as="geometry" />
        </mxCell>
        <mxCell id="0-RnSp5-5QjJDLLLA93T-177" value="" style="group" parent="1" vertex="1" connectable="0">
          <mxGeometry x="360" y="-120" width="80" height="80" as="geometry" />
        </mxCell>
        <mxCell id="0-RnSp5-5QjJDLLLA93T-178" value="" style="rounded=0;whiteSpace=wrap;html=1;fontSize=48;" parent="0-RnSp5-5QjJDLLLA93T-177" vertex="1">
          <mxGeometry width="80" height="80" as="geometry" />
        </mxCell>
        <mxCell id="0-RnSp5-5QjJDLLLA93T-179" value="&lt;font color=&quot;#ff3333&quot; style=&quot;font-size: 48px;&quot;&gt;&lt;b style=&quot;&quot;&gt;2&lt;/b&gt;&lt;/font&gt;" style="text;html=1;align=center;verticalAlign=middle;resizable=0;points=[];autosize=1;strokeColor=none;fillColor=none;fontSize=24;fontColor=#000000;" parent="0-RnSp5-5QjJDLLLA93T-177" vertex="1">
          <mxGeometry x="15" y="5" width="50" height="70" as="geometry" />
        </mxCell>
        <mxCell id="0-RnSp5-5QjJDLLLA93T-180" value="" style="group" parent="1" vertex="1" connectable="0">
          <mxGeometry x="320" y="-520" width="80" height="80" as="geometry" />
        </mxCell>
        <mxCell id="0-RnSp5-5QjJDLLLA93T-181" value="" style="rounded=0;whiteSpace=wrap;html=1;fontSize=48;" parent="0-RnSp5-5QjJDLLLA93T-180" vertex="1">
          <mxGeometry width="80" height="80" as="geometry" />
        </mxCell>
        <mxCell id="0-RnSp5-5QjJDLLLA93T-182" value="&lt;font color=&quot;#ff3333&quot; style=&quot;font-size: 48px;&quot;&gt;&lt;b style=&quot;&quot;&gt;1&lt;/b&gt;&lt;/font&gt;" style="text;html=1;align=center;verticalAlign=middle;resizable=0;points=[];autosize=1;strokeColor=none;fillColor=none;fontSize=24;fontColor=#000000;" parent="0-RnSp5-5QjJDLLLA93T-180" vertex="1">
          <mxGeometry x="15" y="5" width="50" height="70" as="geometry" />
        </mxCell>
        <mxCell id="0-RnSp5-5QjJDLLLA93T-188" style="edgeStyle=orthogonalEdgeStyle;rounded=0;orthogonalLoop=1;jettySize=auto;html=1;exitX=0.5;exitY=0;exitDx=0;exitDy=0;strokeWidth=5;fontSize=32;fontColor=#000000;fillColor=#d5e8d4;strokeColor=#82b366;" parent="1" source="0-RnSp5-5QjJDLLLA93T-183" edge="1">
          <mxGeometry relative="1" as="geometry">
            <mxPoint x="400" y="-680" as="targetPoint" />
          </mxGeometry>
        </mxCell>
        <mxCell id="0-RnSp5-5QjJDLLLA93T-183" value="&lt;span style=&quot;font-size: 48px;&quot;&gt;&lt;span style=&quot;font-size: 32px;&quot;&gt;1500&lt;/span&gt;&lt;/span&gt;" style="rounded=0;whiteSpace=wrap;html=1;fontSize=24;fillColor=#f5f5f5;fontColor=#333333;strokeColor=#666666;" parent="1" vertex="1">
          <mxGeometry x="360" y="-400" width="80" height="40" as="geometry" />
        </mxCell>
        <mxCell id="0-RnSp5-5QjJDLLLA93T-187" value="1500" style="rounded=0;whiteSpace=wrap;html=1;strokeColor=#666666;fontSize=32;fontColor=#333333;fillColor=#f5f5f5;rotation=90;" parent="1" vertex="1">
          <mxGeometry x="300" y="-340" width="80" height="40" as="geometry" />
        </mxCell>
        <mxCell id="0-RnSp5-5QjJDLLLA93T-189" value="" style="group" parent="1" vertex="1" connectable="0">
          <mxGeometry x="180" y="-360" width="80" height="80" as="geometry" />
        </mxCell>
        <mxCell id="0-RnSp5-5QjJDLLLA93T-190" value="" style="rounded=0;whiteSpace=wrap;html=1;fontSize=48;" parent="0-RnSp5-5QjJDLLLA93T-189" vertex="1">
          <mxGeometry width="80" height="80" as="geometry" />
        </mxCell>
        <mxCell id="0-RnSp5-5QjJDLLLA93T-191" value="&lt;font color=&quot;#009900&quot; style=&quot;font-size: 48px;&quot;&gt;&lt;b style=&quot;&quot;&gt;2&lt;/b&gt;&lt;/font&gt;" style="text;html=1;align=center;verticalAlign=middle;resizable=0;points=[];autosize=1;strokeColor=none;fillColor=none;fontSize=24;fontColor=#000000;" parent="0-RnSp5-5QjJDLLLA93T-189" vertex="1">
          <mxGeometry x="15" y="5" width="50" height="70" as="geometry" />
        </mxCell>
        <mxCell id="0-RnSp5-5QjJDLLLA93T-192" value="" style="group" parent="1" vertex="1" connectable="0">
          <mxGeometry x="360" y="-640" width="80" height="80" as="geometry" />
        </mxCell>
        <mxCell id="0-RnSp5-5QjJDLLLA93T-193" value="" style="rounded=0;whiteSpace=wrap;html=1;fontSize=48;" parent="0-RnSp5-5QjJDLLLA93T-192" vertex="1">
          <mxGeometry width="80" height="80" as="geometry" />
        </mxCell>
        <mxCell id="0-RnSp5-5QjJDLLLA93T-194" value="&lt;font color=&quot;#009900&quot; style=&quot;font-size: 48px;&quot;&gt;&lt;b style=&quot;&quot;&gt;1&lt;/b&gt;&lt;/font&gt;" style="text;html=1;align=center;verticalAlign=middle;resizable=0;points=[];autosize=1;strokeColor=none;fillColor=none;fontSize=24;fontColor=#000000;" parent="0-RnSp5-5QjJDLLLA93T-192" vertex="1">
          <mxGeometry x="15" y="5" width="50" height="70" as="geometry" />
        </mxCell>
        <mxCell id="0-RnSp5-5QjJDLLLA93T-204" style="edgeStyle=orthogonalEdgeStyle;rounded=0;orthogonalLoop=1;jettySize=auto;html=1;exitX=0;exitY=0;exitDx=0;exitDy=0;strokeWidth=5;fontSize=32;fontColor=#009900;fillColor=#e1d5e7;strokeColor=#9673a6;" parent="1" source="0-RnSp5-5QjJDLLLA93T-195" edge="1">
          <mxGeometry relative="1" as="geometry">
            <mxPoint x="1600" y="320" as="targetPoint" />
            <Array as="points">
              <mxPoint x="1600" y="120" />
            </Array>
          </mxGeometry>
        </mxCell>
        <mxCell id="0-RnSp5-5QjJDLLLA93T-195" value="1500" style="rounded=0;whiteSpace=wrap;html=1;strokeColor=#666666;fontSize=32;fontColor=#333333;fillColor=#f5f5f5;rotation=90;" parent="1" vertex="1">
          <mxGeometry x="980" y="141.5" width="80" height="40" as="geometry" />
        </mxCell>
        <mxCell id="0-RnSp5-5QjJDLLLA93T-277" style="edgeStyle=orthogonalEdgeStyle;rounded=0;orthogonalLoop=1;jettySize=auto;html=1;exitX=0;exitY=0;exitDx=0;exitDy=0;entryX=0;entryY=1;entryDx=0;entryDy=0;strokeColor=#6c8ebf;strokeWidth=5;fontSize=32;fontColor=#CCCC00;endArrow=classic;endFill=1;fillColor=#dae8fc;" parent="1" source="0-RnSp5-5QjJDLLLA93T-196" target="0-RnSp5-5QjJDLLLA93T-273" edge="1">
          <mxGeometry relative="1" as="geometry">
            <Array as="points">
              <mxPoint x="690" y="120" />
              <mxPoint x="690" y="120" />
            </Array>
          </mxGeometry>
        </mxCell>
        <mxCell id="0-RnSp5-5QjJDLLLA93T-196" value="1500" style="rounded=0;whiteSpace=wrap;html=1;strokeColor=#666666;fontSize=32;fontColor=#333333;fillColor=#f5f5f5;rotation=90;" parent="1" vertex="1">
          <mxGeometry x="420" y="140" width="80" height="40" as="geometry" />
        </mxCell>
        <mxCell id="0-RnSp5-5QjJDLLLA93T-197" value="" style="shape=mxgraph.cisco.routers.atm_router;sketch=0;html=1;pointerEvents=1;dashed=0;fillColor=#808080;strokeColor=#ffffff;strokeWidth=2;verticalLabelPosition=bottom;verticalAlign=top;align=center;outlineConnect=0;" parent="1" vertex="1">
          <mxGeometry x="920" y="-360" width="80" height="83" as="geometry" />
        </mxCell>
        <mxCell id="0-RnSp5-5QjJDLLLA93T-199" value="&lt;span style=&quot;font-size: 48px;&quot;&gt;&lt;span style=&quot;font-size: 32px;&quot;&gt;1500&lt;/span&gt;&lt;/span&gt;" style="rounded=0;whiteSpace=wrap;html=1;fontSize=24;fillColor=#f5f5f5;fontColor=#333333;strokeColor=#666666;" parent="1" vertex="1">
          <mxGeometry x="920" y="-400" width="80" height="40" as="geometry" />
        </mxCell>
        <mxCell id="0-RnSp5-5QjJDLLLA93T-201" value="&lt;span style=&quot;font-size: 48px;&quot;&gt;&lt;span style=&quot;font-size: 32px;&quot;&gt;200&lt;/span&gt;&lt;/span&gt;" style="rounded=0;whiteSpace=wrap;html=1;fontSize=24;fillColor=#f5f5f5;fontColor=#333333;strokeColor=#666666;" parent="1" vertex="1">
          <mxGeometry x="920" y="80" width="80" height="40" as="geometry" />
        </mxCell>
        <mxCell id="0-RnSp5-5QjJDLLLA93T-203" style="edgeStyle=orthogonalEdgeStyle;rounded=0;orthogonalLoop=1;jettySize=auto;html=1;exitX=1;exitY=1;exitDx=0;exitDy=0;strokeWidth=5;fontSize=32;fontColor=#009900;fillColor=#e1d5e7;strokeColor=#9673a6;" parent="1" source="0-RnSp5-5QjJDLLLA93T-202" edge="1">
          <mxGeometry relative="1" as="geometry">
            <mxPoint x="960" y="80" as="targetPoint" />
            <Array as="points">
              <mxPoint x="960" y="-240" />
              <mxPoint x="960" y="80" />
            </Array>
          </mxGeometry>
        </mxCell>
        <mxCell id="0-RnSp5-5QjJDLLLA93T-202" value="&lt;span style=&quot;font-size: 48px;&quot;&gt;&lt;span style=&quot;font-size: 32px;&quot;&gt;200&lt;/span&gt;&lt;/span&gt;" style="rounded=0;whiteSpace=wrap;html=1;fontSize=24;fillColor=#f5f5f5;fontColor=#333333;strokeColor=#666666;" parent="1" vertex="1">
          <mxGeometry x="920" y="-280" width="80" height="40" as="geometry" />
        </mxCell>
        <mxCell id="0-RnSp5-5QjJDLLLA93T-205" value="" style="group" parent="1" vertex="1" connectable="0">
          <mxGeometry x="920" y="-640" width="80" height="80" as="geometry" />
        </mxCell>
        <mxCell id="0-RnSp5-5QjJDLLLA93T-206" value="" style="rounded=0;whiteSpace=wrap;html=1;fontSize=48;" parent="0-RnSp5-5QjJDLLLA93T-205" vertex="1">
          <mxGeometry width="80" height="80" as="geometry" />
        </mxCell>
        <mxCell id="0-RnSp5-5QjJDLLLA93T-207" value="&lt;font color=&quot;#b5739d&quot; style=&quot;font-size: 48px;&quot;&gt;&lt;b style=&quot;&quot;&gt;3&lt;/b&gt;&lt;/font&gt;" style="text;html=1;align=center;verticalAlign=middle;resizable=0;points=[];autosize=1;strokeColor=none;fillColor=none;fontSize=24;fontColor=#000000;" parent="0-RnSp5-5QjJDLLLA93T-205" vertex="1">
          <mxGeometry x="15" y="5" width="50" height="70" as="geometry" />
        </mxCell>
        <mxCell id="0-RnSp5-5QjJDLLLA93T-208" value="" style="group" parent="1" vertex="1" connectable="0">
          <mxGeometry x="920" y="-120" width="80" height="80" as="geometry" />
        </mxCell>
        <mxCell id="0-RnSp5-5QjJDLLLA93T-209" value="" style="rounded=0;whiteSpace=wrap;html=1;fontSize=48;" parent="0-RnSp5-5QjJDLLLA93T-208" vertex="1">
          <mxGeometry width="80" height="80" as="geometry" />
        </mxCell>
        <mxCell id="0-RnSp5-5QjJDLLLA93T-210" value="&lt;font color=&quot;#b5739d&quot; style=&quot;font-size: 48px;&quot;&gt;&lt;b style=&quot;&quot;&gt;2&lt;/b&gt;&lt;/font&gt;" style="text;html=1;align=center;verticalAlign=middle;resizable=0;points=[];autosize=1;strokeColor=none;fillColor=none;fontSize=24;fontColor=#000000;" parent="0-RnSp5-5QjJDLLLA93T-208" vertex="1">
          <mxGeometry x="15" y="5" width="50" height="70" as="geometry" />
        </mxCell>
        <mxCell id="0-RnSp5-5QjJDLLLA93T-211" value="" style="group" parent="1" vertex="1" connectable="0">
          <mxGeometry x="1560" y="80" width="80" height="80" as="geometry" />
        </mxCell>
        <mxCell id="0-RnSp5-5QjJDLLLA93T-212" value="" style="rounded=0;whiteSpace=wrap;html=1;fontSize=48;" parent="0-RnSp5-5QjJDLLLA93T-211" vertex="1">
          <mxGeometry width="80" height="80" as="geometry" />
        </mxCell>
        <mxCell id="0-RnSp5-5QjJDLLLA93T-213" value="&lt;font color=&quot;#b5739d&quot; style=&quot;font-size: 48px;&quot;&gt;&lt;b style=&quot;&quot;&gt;1&lt;/b&gt;&lt;/font&gt;" style="text;html=1;align=center;verticalAlign=middle;resizable=0;points=[];autosize=1;strokeColor=none;fillColor=none;fontSize=24;fontColor=#000000;" parent="0-RnSp5-5QjJDLLLA93T-211" vertex="1">
          <mxGeometry x="15" y="5" width="50" height="70" as="geometry" />
        </mxCell>
        <mxCell id="0-RnSp5-5QjJDLLLA93T-214" value="1500" style="rounded=0;whiteSpace=wrap;html=1;strokeColor=#666666;fontSize=32;fontColor=#333333;fillColor=#f5f5f5;rotation=90;" parent="1" vertex="1">
          <mxGeometry x="-260" y="140" width="80" height="40" as="geometry" />
        </mxCell>
        <mxCell id="L5AipWE66xS1dO851Yee-9" style="rounded=0;orthogonalLoop=1;jettySize=auto;html=1;exitX=1;exitY=0;exitDx=0;exitDy=0;fillColor=#dae8fc;strokeColor=#6c8ebf;strokeWidth=5;endArrow=none;endFill=0;" edge="1" parent="1" source="0-RnSp5-5QjJDLLLA93T-217">
          <mxGeometry relative="1" as="geometry">
            <mxPoint x="320" y="-240" as="targetPoint" />
          </mxGeometry>
        </mxCell>
        <mxCell id="0-RnSp5-5QjJDLLLA93T-217" value="&lt;span style=&quot;font-size: 48px;&quot;&gt;&lt;span style=&quot;font-size: 32px;&quot;&gt;1000&lt;/span&gt;&lt;/span&gt;" style="rounded=0;whiteSpace=wrap;html=1;fontSize=24;fillColor=#f5f5f5;fontColor=#333333;strokeColor=#666666;" parent="1" vertex="1">
          <mxGeometry x="-160" y="80" width="80" height="40" as="geometry" />
        </mxCell>
        <mxCell id="0-RnSp5-5QjJDLLLA93T-219" value="500" style="rounded=0;whiteSpace=wrap;html=1;strokeColor=#666666;fontSize=32;fontColor=#333333;fillColor=#f5f5f5;rotation=90;" parent="1" vertex="1">
          <mxGeometry x="300" y="140" width="80" height="40" as="geometry" />
        </mxCell>
        <mxCell id="0-RnSp5-5QjJDLLLA93T-220" value="&lt;span style=&quot;font-size: 48px;&quot;&gt;&lt;span style=&quot;font-size: 32px;&quot;&gt;1500&lt;/span&gt;&lt;/span&gt;" style="rounded=0;whiteSpace=wrap;html=1;fontSize=24;fillColor=#f5f5f5;fontColor=#333333;strokeColor=#666666;" parent="1" vertex="1">
          <mxGeometry x="-800" y="320" width="80" height="40" as="geometry" />
        </mxCell>
        <mxCell id="0-RnSp5-5QjJDLLLA93T-237" value="&lt;span style=&quot;font-size: 48px;&quot;&gt;&lt;span style=&quot;font-size: 32px;&quot;&gt;1500&lt;/span&gt;&lt;/span&gt;" style="rounded=0;whiteSpace=wrap;html=1;fontSize=24;fillColor=#f5f5f5;fontColor=#333333;strokeColor=#666666;" parent="1" vertex="1">
          <mxGeometry x="360" y="200" width="80" height="40" as="geometry" />
        </mxCell>
        <mxCell id="0-RnSp5-5QjJDLLLA93T-239" value="R" style="text;html=1;strokeColor=none;fillColor=none;align=center;verticalAlign=middle;whiteSpace=wrap;rounded=0;fontSize=32;fontColor=#FFFFFF;" parent="1" vertex="1">
          <mxGeometry x="410" y="440" width="60" height="30" as="geometry" />
        </mxCell>
        <mxCell id="0-RnSp5-5QjJDLLLA93T-240" value="" style="rounded=0;whiteSpace=wrap;html=1;strokeColor=#000000;fillColor=#fff2cc;" parent="1" vertex="1">
          <mxGeometry x="160" y="480" width="480" height="360" as="geometry" />
        </mxCell>
        <mxCell id="0-RnSp5-5QjJDLLLA93T-241" style="edgeStyle=orthogonalEdgeStyle;rounded=0;orthogonalLoop=1;jettySize=auto;html=1;entryX=0.5;entryY=1;entryDx=0;entryDy=0;entryPerimeter=0;" parent="1" source="0-RnSp5-5QjJDLLLA93T-242" target="0-RnSp5-5QjJDLLLA93T-243" edge="1">
          <mxGeometry relative="1" as="geometry" />
        </mxCell>
        <mxCell id="0-RnSp5-5QjJDLLLA93T-242" value="" style="shape=mxgraph.cisco.computers_and_peripherals.pc;sketch=0;html=1;pointerEvents=1;dashed=0;fillColor=#808080;strokeColor=#ffffff;strokeWidth=2;verticalLabelPosition=bottom;verticalAlign=top;align=center;outlineConnect=0;" parent="1" vertex="1">
          <mxGeometry x="360" y="720" width="80" height="80" as="geometry" />
        </mxCell>
        <mxCell id="0-RnSp5-5QjJDLLLA93T-243" value="" style="shape=mxgraph.cisco.switches.atm_switch;sketch=0;html=1;pointerEvents=1;dashed=0;fillColor=#808080;strokeColor=#ffffff;strokeWidth=2;verticalLabelPosition=bottom;verticalAlign=top;align=center;outlineConnect=0;" parent="1" vertex="1">
          <mxGeometry x="360" y="520" width="80" height="80" as="geometry" />
        </mxCell>
        <mxCell id="0-RnSp5-5QjJDLLLA93T-244" style="edgeStyle=orthogonalEdgeStyle;rounded=0;orthogonalLoop=1;jettySize=auto;html=1;entryX=1;entryY=0.5;entryDx=0;entryDy=0;entryPerimeter=0;" parent="1" source="0-RnSp5-5QjJDLLLA93T-245" target="0-RnSp5-5QjJDLLLA93T-243" edge="1">
          <mxGeometry relative="1" as="geometry">
            <Array as="points">
              <mxPoint x="500" y="760" />
              <mxPoint x="500" y="560" />
            </Array>
          </mxGeometry>
        </mxCell>
        <mxCell id="0-RnSp5-5QjJDLLLA93T-245" value="" style="shape=mxgraph.cisco.computers_and_peripherals.pc;sketch=0;html=1;pointerEvents=1;dashed=0;fillColor=#808080;strokeColor=#ffffff;strokeWidth=2;verticalLabelPosition=bottom;verticalAlign=top;align=center;outlineConnect=0;" parent="1" vertex="1">
          <mxGeometry x="520" y="720" width="80" height="80" as="geometry" />
        </mxCell>
        <mxCell id="0-RnSp5-5QjJDLLLA93T-246" style="edgeStyle=orthogonalEdgeStyle;rounded=0;orthogonalLoop=1;jettySize=auto;html=1;entryX=0;entryY=0.5;entryDx=0;entryDy=0;entryPerimeter=0;" parent="1" source="0-RnSp5-5QjJDLLLA93T-247" target="0-RnSp5-5QjJDLLLA93T-243" edge="1">
          <mxGeometry relative="1" as="geometry">
            <mxPoint x="120.00000000000023" y="560" as="targetPoint" />
            <Array as="points">
              <mxPoint x="300" y="760" />
              <mxPoint x="300" y="560" />
            </Array>
          </mxGeometry>
        </mxCell>
        <mxCell id="0-RnSp5-5QjJDLLLA93T-247" value="" style="shape=mxgraph.cisco.computers_and_peripherals.pc;sketch=0;html=1;pointerEvents=1;dashed=0;fillColor=#808080;strokeColor=#ffffff;strokeWidth=2;verticalLabelPosition=bottom;verticalAlign=top;align=center;outlineConnect=0;" parent="1" vertex="1">
          <mxGeometry x="200" y="720" width="80" height="80" as="geometry" />
        </mxCell>
        <mxCell id="0-RnSp5-5QjJDLLLA93T-248" value="&lt;font color=&quot;#ffffff&quot;&gt;&lt;span style=&quot;font-size: 32px;&quot;&gt;&lt;b&gt;F&lt;/b&gt;&lt;/span&gt;&lt;/font&gt;" style="rounded=0;whiteSpace=wrap;html=1;strokeColor=#000000;fillColor=#CCCC00;" parent="1" vertex="1">
          <mxGeometry x="160" y="480" width="80" height="80" as="geometry" />
        </mxCell>
        <mxCell id="0-RnSp5-5QjJDLLLA93T-270" style="edgeStyle=orthogonalEdgeStyle;rounded=0;orthogonalLoop=1;jettySize=auto;html=1;strokeColor=#CCCC00;strokeWidth=5;fontSize=32;fontColor=#CCCC00;endArrow=classic;endFill=1;" parent="1" source="0-RnSp5-5QjJDLLLA93T-250" edge="1">
          <mxGeometry relative="1" as="geometry">
            <mxPoint x="1280" y="-320" as="targetPoint" />
          </mxGeometry>
        </mxCell>
        <mxCell id="0-RnSp5-5QjJDLLLA93T-250" value="1500" style="rounded=0;whiteSpace=wrap;html=1;strokeColor=#666666;fontSize=32;fontColor=#333333;fillColor=#f5f5f5;rotation=90;" parent="1" vertex="1">
          <mxGeometry x="980" y="-340" width="80" height="40" as="geometry" />
        </mxCell>
        <mxCell id="0-RnSp5-5QjJDLLLA93T-252" value="" style="rounded=0;whiteSpace=wrap;html=1;fontSize=48;" parent="1" vertex="1">
          <mxGeometry x="360" y="320" width="80" height="80" as="geometry" />
        </mxCell>
        <mxCell id="0-RnSp5-5QjJDLLLA93T-253" value="&lt;font color=&quot;#cccc00&quot; style=&quot;font-size: 48px;&quot;&gt;&lt;b style=&quot;&quot;&gt;3&lt;/b&gt;&lt;/font&gt;" style="text;html=1;align=center;verticalAlign=middle;resizable=0;points=[];autosize=1;strokeColor=none;fillColor=none;fontSize=24;fontColor=#000000;" parent="1" vertex="1">
          <mxGeometry x="375" y="325" width="50" height="70" as="geometry" />
        </mxCell>
        <mxCell id="0-RnSp5-5QjJDLLLA93T-254" value="" style="endArrow=classic;html=1;rounded=0;strokeColor=#CCCC00;strokeWidth=5;fontSize=32;fontColor=#CCCC00;exitX=0.75;exitY=0;exitDx=0;exitDy=0;" parent="1" source="0-RnSp5-5QjJDLLLA93T-258" edge="1">
          <mxGeometry width="50" height="50" relative="1" as="geometry">
            <mxPoint x="680" y="90" as="sourcePoint" />
            <mxPoint x="880" y="-240" as="targetPoint" />
          </mxGeometry>
        </mxCell>
        <mxCell id="0-RnSp5-5QjJDLLLA93T-255" value="" style="rounded=0;whiteSpace=wrap;html=1;fontSize=48;" parent="1" vertex="1">
          <mxGeometry x="640" y="-120" width="80" height="80" as="geometry" />
        </mxCell>
        <mxCell id="0-RnSp5-5QjJDLLLA93T-256" value="&lt;font color=&quot;#cccc00&quot; style=&quot;font-size: 48px;&quot;&gt;&lt;b style=&quot;&quot;&gt;2&lt;/b&gt;&lt;/font&gt;" style="text;html=1;align=center;verticalAlign=middle;resizable=0;points=[];autosize=1;strokeColor=none;fillColor=none;fontSize=24;fontColor=#000000;" parent="1" vertex="1">
          <mxGeometry x="655" y="-115" width="50" height="70" as="geometry" />
        </mxCell>
        <mxCell id="0-RnSp5-5QjJDLLLA93T-258" value="&lt;span style=&quot;font-size: 48px;&quot;&gt;&lt;span style=&quot;font-size: 32px;&quot;&gt;1000&lt;/span&gt;&lt;/span&gt;" style="rounded=0;whiteSpace=wrap;html=1;fontSize=24;fillColor=#f5f5f5;fontColor=#333333;strokeColor=#666666;" parent="1" vertex="1">
          <mxGeometry x="440" y="80" width="80" height="40" as="geometry" />
        </mxCell>
        <mxCell id="0-RnSp5-5QjJDLLLA93T-259" value="&lt;span style=&quot;font-size: 48px;&quot;&gt;&lt;span style=&quot;font-size: 32px;&quot;&gt;1000&lt;/span&gt;&lt;/span&gt;" style="rounded=0;whiteSpace=wrap;html=1;fontSize=24;fillColor=#f5f5f5;fontColor=#333333;strokeColor=#666666;" parent="1" vertex="1">
          <mxGeometry x="840" y="-280" width="80" height="40" as="geometry" />
        </mxCell>
        <mxCell id="0-RnSp5-5QjJDLLLA93T-260" value="R" style="text;html=1;strokeColor=none;fillColor=none;align=center;verticalAlign=middle;whiteSpace=wrap;rounded=0;fontSize=32;fontColor=#FFFFFF;" parent="1" vertex="1">
          <mxGeometry x="1570" y="-560" width="60" height="30" as="geometry" />
        </mxCell>
        <mxCell id="0-RnSp5-5QjJDLLLA93T-261" value="" style="rounded=0;whiteSpace=wrap;html=1;strokeColor=#000000;fillColor=#8AE6D5;" parent="1" vertex="1">
          <mxGeometry x="1320" y="-520" width="480" height="360" as="geometry" />
        </mxCell>
        <mxCell id="0-RnSp5-5QjJDLLLA93T-262" style="edgeStyle=orthogonalEdgeStyle;rounded=0;orthogonalLoop=1;jettySize=auto;html=1;entryX=0.5;entryY=1;entryDx=0;entryDy=0;entryPerimeter=0;" parent="1" source="0-RnSp5-5QjJDLLLA93T-263" target="0-RnSp5-5QjJDLLLA93T-264" edge="1">
          <mxGeometry relative="1" as="geometry" />
        </mxCell>
        <mxCell id="0-RnSp5-5QjJDLLLA93T-263" value="" style="shape=mxgraph.cisco.computers_and_peripherals.pc;sketch=0;html=1;pointerEvents=1;dashed=0;fillColor=#808080;strokeColor=#ffffff;strokeWidth=2;verticalLabelPosition=bottom;verticalAlign=top;align=center;outlineConnect=0;" parent="1" vertex="1">
          <mxGeometry x="1520" y="-280" width="80" height="80" as="geometry" />
        </mxCell>
        <mxCell id="0-RnSp5-5QjJDLLLA93T-264" value="" style="shape=mxgraph.cisco.switches.atm_switch;sketch=0;html=1;pointerEvents=1;dashed=0;fillColor=#808080;strokeColor=#ffffff;strokeWidth=2;verticalLabelPosition=bottom;verticalAlign=top;align=center;outlineConnect=0;" parent="1" vertex="1">
          <mxGeometry x="1520" y="-480" width="80" height="80" as="geometry" />
        </mxCell>
        <mxCell id="0-RnSp5-5QjJDLLLA93T-265" style="edgeStyle=orthogonalEdgeStyle;rounded=0;orthogonalLoop=1;jettySize=auto;html=1;entryX=1;entryY=0.5;entryDx=0;entryDy=0;entryPerimeter=0;" parent="1" source="0-RnSp5-5QjJDLLLA93T-266" target="0-RnSp5-5QjJDLLLA93T-264" edge="1">
          <mxGeometry relative="1" as="geometry">
            <Array as="points">
              <mxPoint x="1660" y="-240" />
              <mxPoint x="1660" y="-440" />
            </Array>
          </mxGeometry>
        </mxCell>
        <mxCell id="0-RnSp5-5QjJDLLLA93T-266" value="" style="shape=mxgraph.cisco.computers_and_peripherals.pc;sketch=0;html=1;pointerEvents=1;dashed=0;fillColor=#808080;strokeColor=#ffffff;strokeWidth=2;verticalLabelPosition=bottom;verticalAlign=top;align=center;outlineConnect=0;" parent="1" vertex="1">
          <mxGeometry x="1680" y="-280" width="80" height="80" as="geometry" />
        </mxCell>
        <mxCell id="0-RnSp5-5QjJDLLLA93T-267" style="edgeStyle=orthogonalEdgeStyle;rounded=0;orthogonalLoop=1;jettySize=auto;html=1;entryX=0;entryY=0.5;entryDx=0;entryDy=0;entryPerimeter=0;" parent="1" source="0-RnSp5-5QjJDLLLA93T-268" target="0-RnSp5-5QjJDLLLA93T-264" edge="1">
          <mxGeometry relative="1" as="geometry">
            <mxPoint x="1280.0000000000002" y="-440" as="targetPoint" />
            <Array as="points">
              <mxPoint x="1460" y="-240" />
              <mxPoint x="1460" y="-440" />
            </Array>
          </mxGeometry>
        </mxCell>
        <mxCell id="0-RnSp5-5QjJDLLLA93T-268" value="" style="shape=mxgraph.cisco.computers_and_peripherals.pc;sketch=0;html=1;pointerEvents=1;dashed=0;fillColor=#808080;strokeColor=#ffffff;strokeWidth=2;verticalLabelPosition=bottom;verticalAlign=top;align=center;outlineConnect=0;" parent="1" vertex="1">
          <mxGeometry x="1360" y="-280" width="80" height="80" as="geometry" />
        </mxCell>
        <mxCell id="0-RnSp5-5QjJDLLLA93T-269" value="&lt;font color=&quot;#ffffff&quot;&gt;&lt;span style=&quot;font-size: 32px;&quot;&gt;&lt;b&gt;D&lt;/b&gt;&lt;/span&gt;&lt;/font&gt;" style="rounded=0;whiteSpace=wrap;html=1;strokeColor=#000000;fillColor=#5C998E;" parent="1" vertex="1">
          <mxGeometry x="1320" y="-520" width="80" height="80" as="geometry" />
        </mxCell>
        <mxCell id="0-RnSp5-5QjJDLLLA93T-271" value="" style="rounded=0;whiteSpace=wrap;html=1;fontSize=48;" parent="1" vertex="1">
          <mxGeometry x="1120" y="-361.5" width="80" height="80" as="geometry" />
        </mxCell>
        <mxCell id="0-RnSp5-5QjJDLLLA93T-272" value="&lt;font color=&quot;#cccc00&quot; style=&quot;font-size: 48px;&quot;&gt;&lt;b style=&quot;&quot;&gt;1&lt;/b&gt;&lt;/font&gt;" style="text;html=1;align=center;verticalAlign=middle;resizable=0;points=[];autosize=1;strokeColor=none;fillColor=none;fontSize=24;fontColor=#000000;" parent="1" vertex="1">
          <mxGeometry x="1135" y="-356.5" width="50" height="70" as="geometry" />
        </mxCell>
        <mxCell id="0-RnSp5-5QjJDLLLA93T-273" value="1500" style="rounded=0;whiteSpace=wrap;html=1;strokeColor=#666666;fontSize=32;fontColor=#333333;fillColor=#f5f5f5;rotation=90;" parent="1" vertex="1">
          <mxGeometry x="860" y="140" width="80" height="40" as="geometry" />
        </mxCell>
        <mxCell id="0-RnSp5-5QjJDLLLA93T-89" value="" style="rounded=0;whiteSpace=wrap;html=1;fontSize=48;" parent="1" vertex="1">
          <mxGeometry x="600" y="80" width="80" height="80" as="geometry" />
        </mxCell>
        <mxCell id="0-RnSp5-5QjJDLLLA93T-90" value="&lt;font color=&quot;#0066cc&quot; style=&quot;font-size: 48px;&quot;&gt;&lt;b&gt;2&lt;/b&gt;&lt;/font&gt;" style="text;html=1;align=center;verticalAlign=middle;resizable=0;points=[];autosize=1;strokeColor=none;fillColor=none;fontSize=24;fontColor=#000000;" parent="1" vertex="1">
          <mxGeometry x="615" y="85" width="50" height="70" as="geometry" />
        </mxCell>
        <mxCell id="0-RnSp5-5QjJDLLLA93T-280" value="&lt;span style=&quot;font-size: 48px;&quot;&gt;&lt;span style=&quot;font-size: 32px;&quot;&gt;1500&lt;/span&gt;&lt;/span&gt;" style="rounded=0;whiteSpace=wrap;html=1;fontSize=24;fillColor=#f5f5f5;fontColor=#333333;strokeColor=#666666;" parent="1" vertex="1">
          <mxGeometry x="360" y="440" width="80" height="40" as="geometry" />
        </mxCell>
        <mxCell id="0-RnSp5-5QjJDLLLA93T-281" value="&lt;span style=&quot;font-size: 48px;&quot;&gt;&lt;span style=&quot;font-size: 32px;&quot;&gt;1500&lt;/span&gt;&lt;/span&gt;" style="rounded=0;whiteSpace=wrap;html=1;fontSize=24;fillColor=#f5f5f5;fontColor=#333333;strokeColor=#666666;" parent="1" vertex="1">
          <mxGeometry x="360" y="-280" width="80" height="40" as="geometry" />
        </mxCell>
        <mxCell id="0-RnSp5-5QjJDLLLA93T-282" value="&lt;span style=&quot;font-size: 48px;&quot;&gt;&lt;span style=&quot;font-size: 32px;&quot;&gt;1500&lt;/span&gt;&lt;/span&gt;" style="rounded=0;whiteSpace=wrap;html=1;fontSize=24;fillColor=#f5f5f5;fontColor=#333333;strokeColor=#666666;" parent="1" vertex="1">
          <mxGeometry x="360" y="-720" width="80" height="40" as="geometry" />
        </mxCell>
        <mxCell id="0-RnSp5-5QjJDLLLA93T-283" value="1500" style="rounded=0;whiteSpace=wrap;html=1;strokeColor=#666666;fontSize=32;fontColor=#333333;fillColor=#f5f5f5;rotation=90;" parent="1" vertex="1">
          <mxGeometry x="60" y="-340" width="80" height="40" as="geometry" />
        </mxCell>
        <mxCell id="0-RnSp5-5QjJDLLLA93T-284" value="1500" style="rounded=0;whiteSpace=wrap;html=1;strokeColor=#666666;fontSize=32;fontColor=#333333;fillColor=#f5f5f5;rotation=90;" parent="1" vertex="1">
          <mxGeometry x="1260" y="-340" width="80" height="40" as="geometry" />
        </mxCell>
        <mxCell id="0-RnSp5-5QjJDLLLA93T-286" value="&lt;span style=&quot;font-size: 48px;&quot;&gt;&lt;span style=&quot;font-size: 32px;&quot;&gt;1500&lt;/span&gt;&lt;/span&gt;" style="rounded=0;whiteSpace=wrap;html=1;fontSize=24;fillColor=#f5f5f5;fontColor=#333333;strokeColor=#666666;" parent="1" vertex="1">
          <mxGeometry x="920" y="-720" width="80" height="40" as="geometry" />
        </mxCell>
        <mxCell id="0-RnSp5-5QjJDLLLA93T-287" value="&lt;span style=&quot;font-size: 48px;&quot;&gt;&lt;span style=&quot;font-size: 32px;&quot;&gt;1500&lt;/span&gt;&lt;/span&gt;" style="rounded=0;whiteSpace=wrap;html=1;fontSize=24;fillColor=#f5f5f5;fontColor=#333333;strokeColor=#666666;" parent="1" vertex="1">
          <mxGeometry x="1520" y="320" width="80" height="40" as="geometry" />
        </mxCell>
        <mxCell id="L5AipWE66xS1dO851Yee-1" style="edgeStyle=orthogonalEdgeStyle;rounded=0;orthogonalLoop=1;jettySize=auto;html=1;entryX=0.5;entryY=1;entryDx=0;entryDy=0;entryPerimeter=0;" edge="1" parent="1" source="L5AipWE66xS1dO851Yee-2" target="L5AipWE66xS1dO851Yee-3">
          <mxGeometry relative="1" as="geometry" />
        </mxCell>
        <mxCell id="L5AipWE66xS1dO851Yee-2" value="" style="shape=mxgraph.cisco.computers_and_peripherals.pc;sketch=0;html=1;pointerEvents=1;dashed=0;fillColor=#808080;strokeColor=#ffffff;strokeWidth=2;verticalLabelPosition=bottom;verticalAlign=top;align=center;outlineConnect=0;" vertex="1" parent="1">
          <mxGeometry x="920" y="-840" width="80" height="80" as="geometry" />
        </mxCell>
        <mxCell id="L5AipWE66xS1dO851Yee-3" value="" style="shape=mxgraph.cisco.switches.atm_switch;sketch=0;html=1;pointerEvents=1;dashed=0;fillColor=#808080;strokeColor=#ffffff;strokeWidth=2;verticalLabelPosition=bottom;verticalAlign=top;align=center;outlineConnect=0;" vertex="1" parent="1">
          <mxGeometry x="920" y="-1040" width="80" height="80" as="geometry" />
        </mxCell>
        <mxCell id="L5AipWE66xS1dO851Yee-4" style="edgeStyle=orthogonalEdgeStyle;rounded=0;orthogonalLoop=1;jettySize=auto;html=1;entryX=1;entryY=0.5;entryDx=0;entryDy=0;entryPerimeter=0;" edge="1" parent="1" source="L5AipWE66xS1dO851Yee-5" target="L5AipWE66xS1dO851Yee-3">
          <mxGeometry relative="1" as="geometry">
            <Array as="points">
              <mxPoint x="1060" y="-800" />
              <mxPoint x="1060" y="-1000" />
            </Array>
          </mxGeometry>
        </mxCell>
        <mxCell id="L5AipWE66xS1dO851Yee-5" value="" style="shape=mxgraph.cisco.computers_and_peripherals.pc;sketch=0;html=1;pointerEvents=1;dashed=0;fillColor=#808080;strokeColor=#ffffff;strokeWidth=2;verticalLabelPosition=bottom;verticalAlign=top;align=center;outlineConnect=0;" vertex="1" parent="1">
          <mxGeometry x="1080" y="-840" width="80" height="80" as="geometry" />
        </mxCell>
        <mxCell id="L5AipWE66xS1dO851Yee-6" style="edgeStyle=orthogonalEdgeStyle;rounded=0;orthogonalLoop=1;jettySize=auto;html=1;entryX=0;entryY=0.5;entryDx=0;entryDy=0;entryPerimeter=0;" edge="1" parent="1" source="L5AipWE66xS1dO851Yee-7" target="L5AipWE66xS1dO851Yee-3">
          <mxGeometry relative="1" as="geometry">
            <mxPoint x="680.0000000000002" y="-1000" as="targetPoint" />
            <Array as="points">
              <mxPoint x="860" y="-800" />
              <mxPoint x="860" y="-1000" />
            </Array>
          </mxGeometry>
        </mxCell>
        <mxCell id="L5AipWE66xS1dO851Yee-7" value="" style="shape=mxgraph.cisco.computers_and_peripherals.pc;sketch=0;html=1;pointerEvents=1;dashed=0;fillColor=#808080;strokeColor=#ffffff;strokeWidth=2;verticalLabelPosition=bottom;verticalAlign=top;align=center;outlineConnect=0;" vertex="1" parent="1">
          <mxGeometry x="760" y="-840" width="80" height="80" as="geometry" />
        </mxCell>
        <mxCell id="L5AipWE66xS1dO851Yee-11" value="&lt;span style=&quot;font-size: 48px;&quot;&gt;&lt;span style=&quot;font-size: 32px;&quot;&gt;1000&lt;/span&gt;&lt;/span&gt;" style="rounded=0;whiteSpace=wrap;html=1;fontSize=24;fillColor=#f5f5f5;fontColor=#333333;strokeColor=#666666;" vertex="1" parent="1">
          <mxGeometry x="280" y="-281.5" width="80" height="40" as="geometry" />
        </mxCell>
      </root>
    </mxGraphModel>
  </diagram>
</mxfile>
